# xmcd CD database file
#
# Track frame offsets:
#	150
#	20159
#	41130
#	59390
#	80093
#	97287
#	117165
#	134329
#	159781
#	178885
#	198387
#	220273
#
# Disc length: 3167 seconds
#
# Revision: 2
# Processed by: cddbd v1.5.2PL0 Copyright (c) Steve Scherf et al.
# Submitted via: CdAid (MTCDDB.DLL V2003.12.21)
#
DISCID=b20c5d0c
DTITLE=Álex Ubago - Fantasía o realidad
DYEAR=2003
DGENRE=Ballad
TTITLE0=Aunque no te pueda ver
TTITLE1=Fantasía o realidad
TTITLE2=Dame tu aire
TTITLE3=Prefiero
TTITLE4=Cuanto antes
TTITLE5=Otro día más
TTITLE6=Allí estaré
TTITLE7=Despertar
TTITLE8=Lo más grande
TTITLE9=Por tantas cosas
TTITLE10=Salida
TTITLE11=No soy yo
EXTD=ID3G: 116 YEAR: 2003
EXTT0=
EXTT1=
EXTT2=
EXTT3=
EXTT4=
EXTT5=
EXTT6=
EXTT7=
EXTT8=
EXTT9=
EXTT10=
EXTT11=
PLAYORDER=
